<?xml version="1.0" encoding="UTF-8"?>
<svg id="Layer_1" data-name="Layer 1" xmlns="http://www.w3.org/2000/svg" viewBox="-8 -8 326.51 420.45">
  <defs>
    <style>
      .cls-1 {
        fill: #333333;
        stroke: #333333;
        stroke-width: 16px;
      }
    </style>
  </defs>
  <path class="cls-1" d="m262.22,393.03c12.54-2.96,31.43-19.38,35.15-31.71,5.61-18.61,10.13-38.74,10.13-63.38V97.67c0-18.53-15.07-33.59-33.59-33.59-4.85,0-9.49,1.21-13.79,3.16l-4.34-19.65c-3.94-18.09-21.85-29.67-39.96-25.7-5.08,1.1-9.57,3.4-13.42,6.4l-.39-1.81c-1.9-8.79-7.1-16.29-14.65-21.14-7.56-4.86-16.54-6.42-25.3-4.57-8.77,1.91-16.28,7.11-21.14,14.66-4.86,7.53-6.48,16.53-4.58,25.3l24.96,115.02-19.64-6.15c-29.67-9.29-61.83-3.14-86.03,16.42l-12.44,10.07c-6.98,5.63-11.35,13.66-12.3,22.59-.28,2.7-.25,5.41.11,8.04-2.29.18-4.59.6-6.89,1.27-17.76,5.23-27.97,23.94-22.76,41.7l21.47,73.04c8.56,29.17,26.98,58.6,56.05,68.14,28.25,9.27,76.22,11.73,118.5,10.16,26.17-.98,45.22-3.35,64.85-7.97Zm-82.7-8.93c-33.82,0-70.06-2.82-91.96-10.28-23.89-8.14-39.28-32.28-46.39-56.48l-21.46-73.04c-2.24-7.67,2.16-15.72,9.8-17.98,7.72-2.26,15.72,2.15,17.79,9.1l7.15,33.46c14.7,51.39,43.16,62.17,64.45,62.17,35.73,0,64.8-29.08,64.8-64.8s-29.07-64.8-64.77-64.8c-14.93,0-30.32,1.31-45.52,12-6.2,5.02-15.34,4.06-20.35-2.14-2.43-3.02-3.54-6.78-3.14-10.64.41-3.84,2.29-7.29,5.3-9.73l12.45-10.07c19.19-15.53,44.73-20.43,68.29-13.03l35.33,11.06c.19.06.38.01.56.06.59.15,1.18.16,1.79.19.69.04,1.36.08,2.03-.03.17-.03.32.03.49,0,.38-.08.66-.32,1.02-.44.67-.23,1.3-.46,1.9-.83.52-.32.95-.71,1.4-1.12.45-.41.88-.8,1.25-1.3.4-.54.67-1.12.95-1.73.17-.37.46-.66.58-1.06.06-.18.01-.36.06-.55.16-.61.17-1.23.2-1.87.03-.66.07-1.29-.03-1.92-.03-.19.03-.36,0-.54l-28.44-131.09c-.82-3.77-.12-7.64,1.97-10.89,2.08-3.24,5.32-5.48,9.11-6.31,3.8-.82,7.65-.13,10.89,1.97,3.25,2.09,5.49,5.32,6.31,9.08l44.36,205.36c.96,4.48,4.93,7.55,9.34,7.55.67,0,1.34-.07,2.02-.21,5.16-1.12,8.44-6.22,7.33-11.37l-37.56-173.88c-.01-.06.01-.12,0-.18-1.7-7.78,3.27-15.51,11.06-17.21,7.87-1.6,15.52,3.29,17.22,11.12l51.28,231.99v14.27c0,19.83-3.2,36.34-7.62,52.08s-17.15,26.37-32.79,28.37c-20.31,2.6-48.74,5.71-68.44,5.71Zm-94.61-155.39c9.59-6.71,20.28-8.14,33.37-8.14,25.67-.07,46.29,20.28,46.29,45.68s-20.49,45.68-45.68,45.68c-21.39,0-36.89-16.26-45.89-47.66l-6.1-28.49c6.44-.46,12.75-2.8,18.01-7.05Zm179.53-141.95c2.61-2.26,5.95-3.56,9.47-3.56,7.98,0,14.47,6.48,14.47,14.46v97.38l-23.94-108.29Z"/>
</svg>