<?xml version="1.0" encoding="utf-8"?>
<!-- Generator: Adobe Illustrator 27.1.1, SVG Export Plug-In . SVG Version: 6.00 Build 0)  -->
<svg version="1.1" id="line" xmlns="http://www.w3.org/2000/svg" xmlns:xlink="http://www.w3.org/1999/xlink" x="0px" y="0px"
	 viewBox="0 0 64 64" style="enable-background:new 0 0 64 64;" xml:space="preserve">
<style type="text/css">
	.st0{fill:#231F20;stroke:#231F20;stroke-miterlimit:10;}
	.st1{fill:#231F20;stroke:#231F20;stroke-miterlimit:10;}
</style>
<path class="st0" d="M54.7,20c0-1.7-1.4-3.1-3.1-3.1h-0.9c-1.2-1.8-3.5-4.4-6.2-4.4h-2.9V9.9c0-3.3-2.6-5.9-5.9-5.9h-7.2
	c-3.3,0-5.9,2.6-5.9,5.9v2.6h-3.1c-2.8,0-5,2.6-6.2,4.4h-0.8c-1.7,0-3.1,1.4-3.1,3.1s1.4,3.1,3.1,3.1c0,0,0.1,0,0.1,0l1.6,32.2
	c0.1,2.6,2.3,4.7,4.9,4.7h26.1c2.6,0,4.8-2.1,4.9-4.7l1.7-32.2C53.4,23,54.7,21.6,54.7,20z M24.6,9.9c0-2.1,1.7-3.9,3.9-3.9h7.2
	c2.1,0,3.9,1.7,3.9,3.9v2.6H38V9.8c0-1.2-1-2.2-2.2-2.2h-7.6c-1.2,0-2.2,1-2.2,2.2v2.7h-1.4V9.9z M28,12.5V9.8
	c0-0.1,0.1-0.2,0.2-0.2h7.6c0.1,0,0.2,0.1,0.2,0.2v2.7H28z M19.5,14.5h24.9c1.4,0,2.8,1.2,3.8,2.4H15.8
	C16.7,15.7,18.1,14.5,19.5,14.5z M48,55.2c-0.1,1.6-1.4,2.8-2.9,2.8H19c-1.6,0-2.9-1.2-2.9-2.8l-1.5-32.1h35.2L48,55.2z M51.6,21.1
	H12.4c-0.6,0-1.1-0.5-1.1-1.1c0-0.6,0.5-1.1,1.1-1.1h39.1c0.6,0,1.1,0.5,1.1,1.1C52.7,20.6,52.2,21.1,51.6,21.1L51.6,21.1z"/>
<path class="st1" d="M20.9,26.3c-1.6,0-2.8,1.3-2.8,2.8c0,0,0,0,0,0l0.5,23.3c0,1.6,1.3,2.8,2.9,2.7c1.5,0,2.8-1.3,2.7-2.9
	l-0.6-23.3C23.7,27.5,22.5,26.3,20.9,26.3z M22.1,53c-0.3,0.3-0.9,0.3-1.2,0c-0.1-0.1-0.2-0.3-0.2-0.5l-0.5-23.3
	c0-0.4,0.4-0.8,0.8-0.8c0.4,0,0.8,0.3,0.8,0.8l0.6,23.3C22.3,52.6,22.2,52.8,22.1,53z"/>
<path class="st1" d="M42.9,26.3c-1.5,0-2.8,1.2-2.8,2.7l-0.6,23.3c0,1.6,1.2,2.8,2.8,2.9c1.5,0,2.8-1.2,2.9-2.7l0.5-23.3
	C45.7,27.6,44.5,26.4,42.9,26.3C42.9,26.3,42.9,26.3,42.9,26.3z M43.2,52.4c0,0.5-0.4,0.8-0.9,0.8c-0.4,0-0.8-0.4-0.8-0.8l0.6-23.3
	c0-0.4,0.4-0.8,0.8-0.8c0.4,0,0.8,0.4,0.8,0.8L43.2,52.4z"/>
<path class="st1" d="M31.9,26.1c-1.6,0-2.8,1.2-2.8,2.8c0,0,0,0,0,0l0.3,23.3c0,1.6,1.3,2.8,2.9,2.8c1.5,0,2.8-1.3,2.8-2.8
	l-0.3-23.3C34.7,27.4,33.4,26.1,31.9,26.1z M33,52.2c0,0.5-0.4,0.8-0.9,0.8c-0.4,0-0.8-0.4-0.8-0.8l-0.3-23.3c0-0.4,0.4-0.8,0.8-0.8
	c0.4,0,0.8,0.3,0.8,0.8L33,52.2z"/>
</svg>
